<svg xmlns="http://www.w3.org/2000/svg" viewBox="0 0 1440 400" preserveAspectRatio="none">
  <defs>
    <linearGradient id="waveDark" x1="0%" y1="0%" x2="100%" y2="0%">
      <stop offset="0%" stop-color="#0F4BA3" />
      <stop offset="100%" stop-color="#0C3C82" />
    </linearGradient>
    <linearGradient id="waveMid" x1="0%" y1="0%" x2="100%" y2="0%">
      <stop offset="0%" stop-color="#1266C5" />
      <stop offset="100%" stop-color="#1F79DC" />
    </linearGradient>
    <linearGradient id="waveLight" x1="0%" y1="0%" x2="100%" y2="0%">
      <stop offset="0%" stop-color="#3A9AEF" />
      <stop offset="100%" stop-color="#63B5FF" />
    </linearGradient>
  </defs>
  <path fill="url(#waveDark)" d="M0 320 C 160 380 360 400 520 360 C 760 300 920 200 1120 210 C 1290 220 1380 240 1440 260 L1440 400 L0 400 Z" />
  <path fill="url(#waveMid)" d="M0 340 C 180 280 360 180 540 200 C 780 230 960 320 1140 320 C 1300 320 1380 280 1440 260 L1440 400 L0 400 Z" opacity="0.92" />
  <path fill="url(#waveLight)" d="M0 360 C 160 300 320 220 480 210 C 660 200 840 260 1020 300 C 1200 340 1320 340 1440 320 L1440 400 L0 400 Z" opacity="0.9" />
</svg>
